<?xml version="1.0" encoding="iso-8859-1"?>
<!-- Generator: Adobe Illustrator 19.0.0, SVG Export Plug-In . SVG Version: 6.00 Build 0)  -->
<svg version="1.1" id="Capa_1" xmlns="http://www.w3.org/2000/svg" xmlns:xlink="http://www.w3.org/1999/xlink" x="0px" y="0px"
	 viewBox="0 0 512 512" style="enable-background:new 0 0 512 512;" xml:space="preserve">
<path style="fill:#FFE1A0;" d="M124.884,504.897H42.921V392.924c0-2.76,2.238-4.999,4.999-4.999h71.964
	c2.76,0,4.999,2.238,4.999,4.999L124.884,504.897L124.884,504.897z"/>
<path style="fill:#EFCC86;" d="M124.884,504.897H83.903V387.926h35.982c2.76,0,4.999,2.238,4.999,4.999
	C124.884,392.924,124.884,504.897,124.884,504.897z"/>
<path style="fill:#44C1DD;" d="M239.573,504.897h-81.962V315.438c0-2.76,2.238-4.999,4.999-4.999h71.964
	c2.76,0,4.999,2.238,4.999,4.999L239.573,504.897L239.573,504.897z"/>
<path style="fill:#37B0C4;" d="M239.573,504.897h-40.981V310.44h35.982c2.76,0,4.999,2.238,4.999,4.999V504.897z"/>
<path style="fill:#F16645;" d="M354.263,504.897H272.3V261.954c0-2.76,2.238-4.999,4.999-4.999h71.965
	c2.76,0,4.999,2.238,4.999,4.999V504.897z"/>
<path style="fill:#EB5836;" d="M354.263,504.897h-40.981V256.955h35.982c2.76,0,4.999,2.238,4.999,4.999V504.897z"/>
<path style="fill:#38C96C;" d="M468.953,504.897h-81.962V75.509c0-2.76,2.238-4.999,4.999-4.999h71.964
	c2.76,0,4.999,2.238,4.999,4.999V504.897z"/>
<path style="fill:#2BAA55;" d="M468.953,504.897h-40.981V70.511h35.982c2.76,0,4.999,2.238,4.999,4.999V504.897z"/>
<g>
	<path style="fill:#2D2D2D;" d="M346.774,32.33c-0.812-2.253-2.651-3.984-4.95-4.657c-2.298-0.671-4.782-0.206-6.679,1.256
		L289.58,64.015c-3.281,2.526-3.893,7.234-1.367,10.515c2.527,3.282,7.234,3.893,10.515,1.367l28.607-22.029
		c-36.481,109.71-109.316,171.964-165.351,205.237C97.945,297.132,41.245,306.73,40.68,306.822
		c-4.085,0.666-6.858,4.516-6.194,8.602c0.598,3.681,3.779,6.297,7.392,6.297c0.399,0,0.805-0.032,1.211-0.098
		c2.403-0.39,59.619-10.008,126.03-49.313c39.02-23.094,73.036-51.693,101.101-85.002c30.985-36.775,54.724-79.384,70.734-126.881
		l11.91,33.071c1.101,3.057,3.982,4.96,7.055,4.96c0.843,0,1.702-0.144,2.54-0.446c3.896-1.403,5.918-5.699,4.514-9.595
		L346.774,32.33z"/>
	<path style="fill:#2D2D2D;" d="M504.502,511.937H7.498c-4.142,0-7.498-3.357-7.498-7.498V7.561C0,3.42,3.356,0.063,7.498,0.063
		s7.498,3.357,7.498,7.498v489.38h489.506c4.142,0,7.498,3.357,7.498,7.498S508.644,511.937,504.502,511.937z"/>
</g>
<g>
</g>
<g>
</g>
<g>
</g>
<g>
</g>
<g>
</g>
<g>
</g>
<g>
</g>
<g>
</g>
<g>
</g>
<g>
</g>
<g>
</g>
<g>
</g>
<g>
</g>
<g>
</g>
<g>
</g>
</svg>
